<?xml version="1.0" standalone="no"?>
<!DOCTYPE svg PUBLIC "-//W3C//DTD SVG 20010904//EN"
 "http://www.w3.org/TR/2001/REC-SVG-20010904/DTD/svg10.dtd">
<svg version="1.0" xmlns="http://www.w3.org/2000/svg"
 width="260.000000pt" height="260.000000pt" viewBox="0 0 260.000000 260.000000"
 preserveAspectRatio="xMidYMid meet">
<metadata>
Created by potrace 1.11, written by Peter Selinger 2001-2013
</metadata>
<g transform="translate(0.000000,260.000000) scale(0.100000,-0.100000)"
fill="#000000" stroke="none">
<path d="M0 1300 l0 -1300 1300 0 1300 0 0 1300 0 1300 -1300 0 -1300 0 0
-1300z m764 265 c76 -102 142 -185 145 -185 3 1 69 84 146 185 l140 185 73 0
72 0 0 -455 0 -455 -75 0 -75 0 -2 332 -3 332 -133 -171 c-73 -95 -136 -174
-140 -177 -4 -2 -68 74 -142 170 l-135 175 -3 -330 -2 -331 -75 0 -75 0 0 455
0 455 73 0 72 -1 139 -184z m1366 110 l0 -75 -130 0 -130 0 0 -380 0 -380 -80
0 -80 0 0 380 0 380 -130 0 -130 0 0 75 0 75 340 0 340 0 0 -75z"/>
</g>
</svg>
